,
.   http://www.scenetime.com/signup.php  ---&gt;  Hottest scene tracker on the net !!!
 
Scenetime lucky draw is started , join now and be the winner . offer is limited 

    Join Now   http://www.scenetime.com/signup.php

    seed back for speed


 



...................................NFO:.................................................ooooo oooo   oooo oooooooo8 oooooooooo  o88   oooooooooo       o      ooooo       
 888   8888o  88 888         888    888 oooo   888    888     888      888        
 888   88 888o88  888oooooo  888oooo88   888   888oooo88     8  88     888        
 888   88   8888         888 888         888   888  88o     8oooo88    888      o 
o888o o88o    88 o88oooo888 o888o       o888o o888o  88o8 o88o  o888o o888ooooo88 

 
TITLE: 

The Inbetweeners 2011 DVDRiP AC3 Theatrical Version XViD - INSPiRAL

IMDB: 
 
http://www.imdb.com/title/tt1716772/


SOURCES:

VIDEO - THE INBETWEENERS  THEATRICAL Pal DVDR Legend-Rg
AUDIO - THE INBETWEENERS  THEATRICAL Pal DVDR Legend-Rg
SUBS - NONE

STATS:

Video
ID                               : 0
Format                           : MPEG-4 Visual
Format profile                   : Advanced Simple@L5
Format settings, BVOP            : 2
Format settings, QPel            : No
Format settings, GMC             : No warppoints
Format settings, Matrix          : Default (H.263)
Muxing mode                      : Packed bitstream
Codec ID                         : XVID
Codec ID/Hint                    : XviD
Duration                         : 1h 32mn
Bit rate                         : 1 696 Kbps
Width                            : 720 pixels
Height                           : 384 pixels
Display aspect ratio             : 1.875
Frame rate                       : 25.000 fps
Color space                      : YUV
Chroma subsampling               : 4:2:0
Bit depth                        : 8 bits
Scan type                        : Progressive
Compression mode                 : Lossy
Bits/(Pixel*Frame)               : 0.245
Stream size                      : 1.10 GiB (79%)
Writing library                  : XviD 64

Audio
ID                               : 1
Format                           : AC-3
Format/Info                      : Audio Coding 3
Mode extension                   : CM (complete main)
Codec ID                         : 2000
Duration                         : 1h 32mn
Bit rate mode                    : Constant
Bit rate                         : 448 Kbps
Channel(s)                       : 6 channels
Channel positions                : Front: L C R, Side: L R, LFE
Sampling rate                    : 48.0 KHz
Bit depth                        : 16 bits
Compression mode                 : Lossy
Stream size                      : 298 MiB (21%)
Alignment                        : Aligned on interleaves
Interleave, duration             : 40 ms (1.00 video frame)
Interleave, preload duration     : 512 ms


NOTES:

Ok ripped the dvdr ....didn't think the Q looked too good IMHO for a dvd but there ya go.
So decided to tweak the colouring,brightness and contrast and also changed the RGB colours to give it some
life back.Also the video needed to be cropped,resized and change the AR and oh it was also interlaced which needed
fixing.
Audio we stripped and remuxed.


SCREENS:

[IMG]http://i.imgur.com/iwSAN.png[/IMG]
[IMG]http://i.imgur.com/aXJMO.png[/IMG]
[IMG]http://i.imgur.com/7s1fL.png[/IMG]
[IMG]http://i.imgur.com/3eMEH.png[/IMG]
[IMG]http://i.imgur.com/pgUHZ.png[/IMG]


GREETZ: 

Past,Present and Future